unsigned char midifile[] = {
  0x4d, 0x54, 0x68, 0x64, 0x00, 0x00, 0x00, 0x06, 0x00, 0x01, 0x00, 0x02,
  0x00, 0x80, 0x4d, 0x54, 0x72, 0x6b, 0x00, 0x00, 0x08, 0x2a, 0x00, 0xff,
  0x03, 0x1e, 0x47, 0x61, 0x6d, 0x65, 0x62, 0x6f, 0x79, 0x5f, 0x47, 0x4d,
  0x5f, 0x53, 0x6f, 0x75, 0x6e, 0x64, 0x66, 0x6f, 0x6e, 0x74, 0x5f, 0x32,
  0x5f, 0x46, 0x69, 0x78, 0x54, 0x65, 0x73, 0x74, 0x00, 0xff, 0x51, 0x03,
  0x06, 0x8a, 0x1b, 0x00, 0x90, 0x3c, 0x40, 0x40, 0x80, 0x3c, 0x40, 0x00,
  0x90, 0x3c, 0x40, 0x40, 0x80, 0x3c, 0x40, 0x00, 0x90, 0x3c, 0x40, 0x40,
  0x80, 0x3c, 0x40, 0x00, 0x90, 0x3c, 0x40, 0x40, 0x80, 0x3c, 0x40, 0x00,
  0x90, 0x3c, 0x40, 0x40, 0x80, 0x3c, 0x40, 0x00, 0x90, 0x3c, 0x40, 0x40,
  0x80, 0x3c, 0x40, 0x00, 0x90, 0x3c, 0x40, 0x40, 0x80, 0x3c, 0x40, 0x00,
  0x90, 0x3c, 0x40, 0x40, 0x80, 0x3c, 0x40, 0x00, 0x90, 0x3c, 0x40, 0x00,
  0x90, 0x30, 0x40, 0x40, 0x80, 0x3c, 0x40, 0x00, 0x80, 0x30, 0x40, 0x00,
  0x90, 0x3c, 0x40, 0x00, 0x90, 0x30, 0x40, 0x40, 0x80, 0x3c, 0x40, 0x00,
  0x80, 0x30, 0x40, 0x00, 0x90, 0x3c, 0x40, 0x00, 0x90, 0x30, 0x40, 0x40,
  0x80, 0x3c, 0x40, 0x00, 0x80, 0x30, 0x40, 0x00, 0x90, 0x30, 0x40, 0x00,
  0x90, 0x3c, 0x40, 0x40, 0x80, 0x30, 0x40, 0x00, 0x80, 0x3c, 0x40, 0x00,
  0x90, 0x3c, 0x40, 0x00, 0x90, 0x30, 0x40, 0x00, 0x90, 0x24, 0x40, 0x40,
  0x80, 0x3c, 0x40, 0x00, 0x80, 0x30, 0x40, 0x00, 0x80, 0x24, 0x40, 0x00,
  0x90, 0x3c, 0x40, 0x00, 0x90, 0x24, 0x40, 0x00, 0x90, 0x30, 0x40, 0x40,
  0x80, 0x3c, 0x40, 0x00, 0x80, 0x30, 0x40, 0x00, 0x80, 0x24, 0x40, 0x00,
  0x90, 0x48, 0x40, 0x00, 0x90, 0x3c, 0x40, 0x00, 0x90, 0x30, 0x40, 0x00,
  0x90, 0x24, 0x40, 0x40, 0x80, 0x48, 0x40, 0x00, 0x80, 0x24, 0x40, 0x00,
  0x80, 0x30, 0x40, 0x00, 0x80, 0x3c, 0x40, 0x00, 0x90, 0x4b, 0x40, 0x00,
  0x90, 0x3c, 0x40, 0x00, 0x90, 0x30, 0x40, 0x00, 0x90, 0x24, 0x40, 0x40,
  0x80, 0x4b, 0x40, 0x00, 0x80, 0x3c, 0x40, 0x00, 0x80, 0x30, 0x40, 0x00,
  0x80, 0x24, 0x40, 0x00, 0x90, 0x30, 0x3a, 0x00, 0x90, 0x4f, 0x40, 0x40,
  0x80, 0x30, 0x3a, 0x00, 0x90, 0x24, 0x3a, 0x40, 0x80, 0x4f, 0x40, 0x00,
  0x80, 0x24, 0x3a, 0x00, 0x90, 0x4d, 0x40, 0x40, 0x80, 0x4d, 0x40, 0x00,
  0x90, 0x30, 0x3a, 0x00, 0x90, 0x24, 0x3a, 0x00, 0x90, 0x4b, 0x40, 0x40,
  0x80, 0x24, 0x3a, 0x00, 0x80, 0x4b, 0x40, 0x00, 0x90, 0x4b, 0x40, 0x40,
  0x90, 0x24, 0x3a, 0x40, 0x80, 0x4b, 0x40, 0x00, 0x80, 0x24, 0x3a, 0x00,
  0x90, 0x26, 0x3a, 0x00, 0x90, 0x48, 0x40, 0x40, 0x80, 0x26, 0x3a, 0x00,
  0x90, 0x27, 0x3a, 0x40, 0x80, 0x48, 0x40, 0x00, 0x80, 0x30, 0x3a, 0x00,
  0x80, 0x27, 0x3a, 0x00, 0x90, 0x46, 0x40, 0x00, 0x90, 0x33, 0x3a, 0x40,
  0x80, 0x46, 0x40, 0x00, 0x80, 0x33, 0x3a, 0x00, 0x90, 0x44, 0x40, 0x00,
  0x90, 0x27, 0x3a, 0x40, 0x80, 0x44, 0x40, 0x00, 0x80, 0x27, 0x3a, 0x00,
  0x90, 0x4b, 0x40, 0x40, 0x90, 0x33, 0x3a, 0x81, 0x00, 0x90, 0x27, 0x3a,
  0x40, 0x80, 0x27, 0x3a, 0x00, 0x90, 0x30, 0x3a, 0x40, 0x80, 0x30, 0x3a,
  0x00, 0x90, 0x2e, 0x3a, 0x40, 0x80, 0x33, 0x3a, 0x00, 0x80, 0x2e, 0x3a,
  0x00, 0x90, 0x2c, 0x3a, 0x40, 0x80, 0x2c, 0x3a, 0x00, 0x90, 0x20, 0x3a,
  0x40, 0x80, 0x20, 0x3a, 0x00, 0x80, 0x4b, 0x40, 0x00, 0x90, 0x4d, 0x40,
  0x00, 0x90, 0x38, 0x3a, 0x40, 0x80, 0x38, 0x3a, 0x00, 0x80, 0x4d, 0x40,
  0x00, 0x90, 0x2c, 0x3a, 0x40, 0x90, 0x48, 0x40, 0x00, 0x90, 0x38, 0x3a,
  0x40, 0x80, 0x48, 0x40, 0x00, 0x80, 0x38, 0x3a, 0x40, 0x90, 0x4d, 0x40,
  0x00, 0x90, 0x38, 0x3a, 0x40, 0x80, 0x2c, 0x3a, 0x00, 0x80, 0x4d, 0x40,
  0x00, 0x80, 0x38, 0x3a, 0x00, 0x90, 0x2c, 0x3a, 0x40, 0x80, 0x2c, 0x3a,
  0x00, 0x90, 0x37, 0x3a, 0x00, 0x90, 0x2b, 0x3a, 0x00, 0x90, 0x48, 0x40,
  0x40, 0x80, 0x2b, 0x3a, 0x00, 0x80, 0x37, 0x3a, 0x00, 0x80, 0x48, 0x40,
  0x00, 0x90, 0x1f, 0x3a, 0x40, 0x80, 0x1f, 0x3a, 0x00, 0x90, 0x4d, 0x40,
  0x00, 0x90, 0x37, 0x3a, 0x40, 0x80, 0x37, 0x3a, 0x00, 0x80, 0x4d, 0x40,
  0x00, 0x90, 0x4d, 0x40, 0x00, 0x90, 0x2b, 0x3a, 0x00, 0x90, 0x37, 0x3a,
  0x40, 0x80, 0x37, 0x3a, 0x00, 0x80, 0x4d, 0x40, 0x00, 0x90, 0x48, 0x40,
  0x00, 0x90, 0x37, 0x3a, 0x40, 0x80, 0x48, 0x40, 0x00, 0x80, 0x37, 0x3a,
  0x40, 0x90, 0x48, 0x40, 0x00, 0x90, 0x37, 0x3a, 0x40, 0x80, 0x48, 0x40,
  0x00, 0x80, 0x37, 0x3a, 0x00, 0x90, 0x4b, 0x40, 0x00, 0x90, 0x3c, 0x3a,
  0x40, 0x80, 0x4b, 0x40, 0x00, 0x80, 0x3c, 0x3a, 0x00, 0x80, 0x2b, 0x3a,
  0x00, 0x90, 0x4f, 0x40, 0x00, 0x90, 0x3e, 0x40, 0x00, 0x90, 0x30, 0x40,
  0x40, 0x80, 0x30, 0x40, 0x00, 0x90, 0x24, 0x40, 0x40, 0x80, 0x4f, 0x40,
  0x00, 0x80, 0x3e, 0x40, 0x00, 0x80, 0x24, 0x40, 0x00, 0x90, 0x3c, 0x40,
  0x00, 0x90, 0x4d, 0x40, 0x40, 0x80, 0x3c, 0x40, 0x00, 0x80, 0x4d, 0x40,
  0x00, 0x90, 0x4b, 0x40, 0x00, 0x90, 0x3a, 0x40, 0x00, 0x90, 0x30, 0x40,
  0x00, 0x90, 0x24, 0x40, 0x40, 0x80, 0x4b, 0x40, 0x00, 0x80, 0x3a, 0x40,
  0x00, 0x80, 0x24, 0x40, 0x00, 0x90, 0x4b, 0x40, 0x00, 0x90, 0x3a, 0x40,
  0x40, 0x90, 0x24, 0x40, 0x40, 0x80, 0x4b, 0x40, 0x00, 0x80, 0x24, 0x40,
  0x00, 0x80, 0x3a, 0x40, 0x00, 0x90, 0x48, 0x40, 0x00, 0x90, 0x37, 0x40,
  0x00, 0x90, 0x26, 0x40, 0x40, 0x80, 0x26, 0x40, 0x00, 0x90, 0x27, 0x40,
  0x40, 0x80, 0x48, 0x40, 0x00, 0x80, 0x27, 0x40, 0x00, 0x80, 0x37, 0x40,
  0x00, 0x80, 0x30, 0x40, 0x00, 0x90, 0x46, 0x40, 0x00, 0x90, 0x35, 0x40,
  0x40, 0x80, 0x46, 0x40, 0x00, 0x80, 0x35, 0x40, 0x00, 0x90, 0x27, 0x40,
  0x00, 0x90, 0x44, 0x40, 0x00, 0x90, 0x33, 0x40, 0x40, 0x80, 0x27, 0x40,
  0x00, 0x80, 0x33, 0x40, 0x00, 0x80, 0x44, 0x40, 0x00, 0x90, 0x4b, 0x40,
  0x00, 0x90, 0x3a, 0x40, 0x40, 0x90, 0x33, 0x40, 0x40, 0x80, 0x3a, 0x40,
  0x40, 0x90, 0x27, 0x40, 0x40, 0x80, 0x4b, 0x40, 0x00, 0x80, 0x27, 0x40,
  0x00, 0x90, 0x3c, 0x40, 0x00, 0x90, 0x30, 0x40, 0x40, 0x80, 0x3c, 0x40,
  0x00, 0x80, 0x30, 0x40, 0x00, 0x90, 0x3f, 0x40, 0x00, 0x90, 0x2e, 0x40,
  0x40, 0x80, 0x2e, 0x40, 0x00, 0x80, 0x3f, 0x40, 0x00, 0x80, 0x33, 0x40,
  0x00, 0x90, 0x42, 0x40, 0x00, 0x90, 0x30, 0x40, 0x00, 0x90, 0x2c, 0x40,
  0x20, 0x80, 0x30, 0x40, 0x20, 0x80, 0x2c, 0x40, 0x00, 0x90, 0x30, 0x40,
  0x00, 0x90, 0x20, 0x40, 0x20, 0x80, 0x30, 0x40, 0x20, 0x80, 0x42, 0x40,
  0x00, 0x80, 0x20, 0x40, 0x00, 0x90, 0x33, 0x40, 0x00, 0x90, 0x41, 0x40,
  0x20, 0x80, 0x33, 0x40, 0x00, 0x90, 0x32, 0x40, 0x20, 0x80, 0x41, 0x40,
  0x00, 0x80, 0x32, 0x40, 0x00, 0x90, 0x3f, 0x40, 0x00, 0x90, 0x30, 0x40,
  0x00, 0x90, 0x2c, 0x40, 0x20, 0x80, 0x30, 0x40, 0x00, 0x90, 0x32, 0x40,
  0x20, 0x80, 0x3f, 0x40, 0x00, 0x80, 0x32, 0x40, 0x00, 0x90, 0x3f, 0x40,
  0x00, 0x90, 0x33, 0x40, 0x60, 0x80, 0x33, 0x40, 0x00, 0x90, 0x30, 0x40,
  0x20, 0x80, 0x30, 0x40, 0x00, 0x80, 0x3f, 0x40, 0x00, 0x90, 0x3c, 0x40,
  0x00, 0x90, 0x33, 0x40, 0x20, 0x80, 0x33, 0x40, 0x00, 0x90, 0x32, 0x40,
  0x20, 0x80, 0x2c, 0x40, 0x00, 0x80, 0x3c, 0x40, 0x00, 0x80, 0x32, 0x40,
  0x00, 0x90, 0x3f, 0x40, 0x00, 0x90, 0x30, 0x40, 0x00, 0x90, 0x2c, 0x40,
  0x20, 0x80, 0x30, 0x40, 0x20, 0x80, 0x3f, 0x40, 0x00, 0x80, 0x2c, 0x40,
  0x00, 0x90, 0x37, 0x40, 0x00, 0x90, 0x42, 0x40, 0x00, 0x90, 0x2b, 0x40,
  0x40, 0x80, 0x2b, 0x40, 0x00, 0x90, 0x1f, 0x40, 0x40, 0x80, 0x42, 0x40,
  0x00, 0x80, 0x37, 0x40, 0x00, 0x80, 0x1f, 0x40, 0x00, 0x90, 0x32, 0x40,
  0x00, 0x90, 0x41, 0x40, 0x40, 0x80, 0x41, 0x40, 0x00, 0x90, 0x2b, 0x40,
  0x00, 0x90, 0x3f, 0x40, 0x40, 0x80, 0x32, 0x40, 0x00, 0x80, 0x3f, 0x40,
  0x00, 0x90, 0x33, 0x40, 0x00, 0x90, 0x41, 0x40, 0x40, 0x80, 0x33, 0x40,
  0x00, 0x90, 0x32, 0x40, 0x40, 0x80, 0x41, 0x40, 0x00, 0x80, 0x32, 0x40,
  0x00, 0x90, 0x41, 0x40, 0x00, 0x90, 0x30, 0x40, 0x20, 0x80, 0x41, 0x40,
  0x00, 0x90, 0x43, 0x40, 0x60, 0x80, 0x30, 0x40, 0x00, 0x80, 0x2b, 0x40,
  0x40, 0x90, 0x30, 0x40, 0x00, 0x90, 0x24, 0x40, 0x40, 0x80, 0x43, 0x40,
  0x00, 0x80, 0x24, 0x40, 0x40, 0x80, 0x30, 0x40, 0x00, 0x90, 0x2e, 0x40,
  0x00, 0x90, 0x24, 0x40, 0x40, 0x80, 0x24, 0x40, 0x00, 0x80, 0x2e, 0x40,
  0x00, 0x90, 0x30, 0x40, 0x40, 0x90, 0x24, 0x40, 0x40, 0x80, 0x30, 0x40,
  0x00, 0x80, 0x24, 0x40, 0x00, 0x90, 0x26, 0x40, 0x00, 0x90, 0x37, 0x40,
  0x40, 0x80, 0x26, 0x40, 0x00, 0x90, 0x27, 0x40, 0x40, 0x80, 0x37, 0x40,
  0x00, 0x80, 0x27, 0x40, 0x00, 0x90, 0x33, 0x40, 0x40, 0x90, 0x27, 0x40,
  0x40, 0x80, 0x27, 0x40, 0x00, 0x90, 0x24, 0x40, 0x40, 0x80, 0x24, 0x40,
  0x00, 0x90, 0x27, 0x40, 0x81, 0x00, 0x80, 0x27, 0x40, 0x00, 0x80, 0x33,
  0x40, 0x00, 0x90, 0x27, 0x40, 0x40, 0x80, 0x27, 0x40, 0x00, 0x90, 0x3c,
  0x40, 0x00, 0x90, 0x30, 0x40, 0x40, 0x80, 0x3c, 0x40, 0x00, 0x80, 0x30,
  0x40, 0x00, 0x90, 0x3f, 0x40, 0x00, 0x90, 0x2e, 0x40, 0x40, 0x80, 0x3f,
  0x40, 0x00, 0x80, 0x2e, 0x40, 0x00, 0x90, 0x42, 0x40, 0x00, 0x90, 0x38,
  0x40, 0x00, 0x90, 0x2c, 0x40, 0x40, 0x80, 0x38, 0x40, 0x00, 0x80, 0x2c,
  0x40, 0x00, 0x90, 0x20, 0x40, 0x40, 0x80, 0x20, 0x40, 0x00, 0x80, 0x42,
  0x40, 0x00, 0x90, 0x38, 0x40, 0x00, 0x90, 0x33, 0x40, 0x00, 0x90, 0x41,
  0x40, 0x40, 0x80, 0x38, 0x40, 0x00, 0x80, 0x41, 0x40, 0x00, 0x90, 0x3f,
  0x40, 0x00, 0x90, 0x2c, 0x40, 0x00, 0x90, 0x38, 0x40, 0x40, 0x80, 0x3f,
  0x40, 0x00, 0x80, 0x38, 0x40, 0x00, 0x80, 0x33, 0x40, 0x00, 0x90, 0x3f,
  0x40, 0x00, 0x90, 0x33, 0x40, 0x00, 0x90, 0x38, 0x40, 0x40, 0x80, 0x38,
  0x40, 0x40, 0x80, 0x3f, 0x40, 0x00, 0x80, 0x33, 0x40, 0x00, 0x90, 0x3c,
  0x40, 0x00, 0x90, 0x38, 0x40, 0x00, 0x90, 0x33, 0x40, 0x40, 0x80, 0x3c,
  0x40, 0x00, 0x80, 0x2c, 0x40, 0x00, 0x90, 0x3f, 0x40, 0x00, 0x90, 0x2c,
  0x40, 0x40, 0x80, 0x3f, 0x40, 0x00, 0x80, 0x33, 0x40, 0x00, 0x80, 0x2c,
  0x40, 0x00, 0x80, 0x38, 0x40, 0x00, 0x90, 0x37, 0x40, 0x00, 0x90, 0x2b,
  0x40, 0x00, 0x90, 0x42, 0x40, 0x00, 0x90, 0x32, 0x40, 0x40, 0x80, 0x37,
  0x40, 0x00, 0x80, 0x2b, 0x40, 0x00, 0x90, 0x1f, 0x40, 0x40, 0x80, 0x42,
  0x40, 0x00, 0x80, 0x1f, 0x40, 0x00, 0x80, 0x32, 0x40, 0x00, 0x90, 0x41,
  0x40, 0x00, 0x90, 0x37, 0x40, 0x00, 0x90, 0x32, 0x40, 0x40, 0x80, 0x41,
  0x40, 0x00, 0x80, 0x37, 0x40, 0x00, 0x90, 0x2b, 0x40, 0x00, 0x90, 0x3f,
  0x40, 0x00, 0x90, 0x37, 0x40, 0x40, 0x80, 0x37, 0x40, 0x00, 0x80, 0x3f,
  0x40, 0x00, 0x80, 0x32, 0x40, 0x00, 0x90, 0x41, 0x40, 0x00, 0x90, 0x37,
  0x40, 0x00, 0x90, 0x32, 0x40, 0x40, 0x80, 0x37, 0x40, 0x40, 0x80, 0x41,
  0x40, 0x00, 0x80, 0x32, 0x40, 0x00, 0x90, 0x32, 0x40, 0x00, 0x90, 0x37,
  0x40, 0x00, 0x90, 0x41, 0x40, 0x20, 0x80, 0x41, 0x40, 0x00, 0x90, 0x43,
  0x40, 0x60, 0x80, 0x32, 0x40, 0x00, 0x80, 0x2b, 0x40, 0x00, 0x80, 0x37,
  0x40, 0x00, 0x90, 0x30, 0x40, 0x40, 0x90, 0x24, 0x40, 0x40, 0x80, 0x24,
  0x40, 0x00, 0x80, 0x43, 0x40, 0x40, 0x90, 0x24, 0x40, 0x40, 0x80, 0x30,
  0x40, 0x00, 0x80, 0x24, 0x40, 0x00, 0x90, 0x3c, 0x40, 0x40, 0x90, 0x24,
  0x40, 0x40, 0x80, 0x3c, 0x40, 0x00, 0x80, 0x24, 0x40, 0x00, 0x90, 0x37,
  0x40, 0x00, 0x90, 0x26, 0x40, 0x40, 0x80, 0x26, 0x40, 0x00, 0x90, 0x27,
  0x40, 0x40, 0x80, 0x27, 0x40, 0x00, 0x80, 0x37, 0x40, 0x00, 0x90, 0x33,
  0x40, 0x40, 0x90, 0x27, 0x40, 0x40, 0x80, 0x27, 0x40, 0x00, 0x90, 0x24,
  0x40, 0x40, 0x80, 0x24, 0x40, 0x00, 0x90, 0x27, 0x40, 0x81, 0x00, 0x80,
  0x27, 0x40, 0x00, 0x90, 0x27, 0x40, 0x40, 0x80, 0x33, 0x40, 0x00, 0x80,
  0x27, 0x40, 0x00, 0x90, 0x30, 0x40, 0x00, 0x90, 0x3c, 0x40, 0x40, 0x80,
  0x30, 0x40, 0x00, 0x80, 0x3c, 0x40, 0x00, 0x90, 0x3f, 0x40, 0x00, 0x90,
  0x2e, 0x40, 0x40, 0x80, 0x3f, 0x40, 0x00, 0x80, 0x2e, 0x40, 0x00, 0x90,
  0x42, 0x40, 0x00, 0x90, 0x38, 0x40, 0x00, 0x90, 0x30, 0x40, 0x00, 0x90,
  0x2c, 0x40, 0x20, 0x80, 0x30, 0x40, 0x20, 0x80, 0x38, 0x40, 0x00, 0x80,
  0x2c, 0x40, 0x00, 0x90, 0x30, 0x40, 0x00, 0x90, 0x20, 0x40, 0x20, 0x80,
  0x30, 0x40, 0x20, 0x80, 0x42, 0x40, 0x00, 0x80, 0x20, 0x40, 0x00, 0x90,
  0x41, 0x40, 0x00, 0x90, 0x38, 0x40, 0x00, 0x90, 0x33, 0x40, 0x20, 0x80,
  0x33, 0x40, 0x00, 0x90, 0x32, 0x40, 0x20, 0x80, 0x41, 0x40, 0x00, 0x80,
  0x38, 0x40, 0x00, 0x80, 0x32, 0x40, 0x00, 0x90, 0x38, 0x40, 0x00, 0x90,
  0x3f, 0x40, 0x00, 0x90, 0x30, 0x40, 0x00, 0x90, 0x2c, 0x40, 0x20, 0x80,
  0x30, 0x40, 0x00, 0x90, 0x32, 0x40, 0x20, 0x80, 0x3f, 0x40, 0x00, 0x80,
  0x38, 0x40, 0x00, 0x80, 0x32, 0x40, 0x00, 0x90, 0x33, 0x40, 0x00, 0x90,
  0x38, 0x40, 0x00, 0x90, 0x3f, 0x40, 0x40, 0x80, 0x38, 0x40, 0x20, 0x80,
  0x33, 0x40, 0x00, 0x90, 0x30, 0x40, 0x20, 0x80, 0x3f, 0x40, 0x00, 0x80,
  0x30, 0x40, 0x00, 0x90, 0x3c, 0x40, 0x00, 0x90, 0x38, 0x40, 0x00, 0x90,
  0x33, 0x40, 0x20, 0x80, 0x33, 0x40, 0x00, 0x90, 0x32, 0x40, 0x20, 0x80,
  0x2c, 0x40, 0x00, 0x80, 0x32, 0x40, 0x00, 0x80, 0x3c, 0x40, 0x00, 0x90,
  0x3f, 0x40, 0x00, 0x90, 0x30, 0x40, 0x00, 0x90, 0x2c, 0x40, 0x20, 0x80,
  0x30, 0x40, 0x20, 0x80, 0x38, 0x40, 0x00, 0x80, 0x3f, 0x40, 0x00, 0x80,
  0x2c, 0x40, 0x00, 0x90, 0x4f, 0x40, 0x00, 0x90, 0x37, 0x40, 0x00, 0x90,
  0x42, 0x40, 0x81, 0x00, 0x80, 0x37, 0x40, 0x00, 0x80, 0x4f, 0x40, 0x00,
  0x80, 0x42, 0x40, 0x00, 0x90, 0x4a, 0x40, 0x00, 0x90, 0x41, 0x40, 0x00,
  0x90, 0x32, 0x40, 0x40, 0x80, 0x41, 0x40, 0x00, 0x90, 0x3f, 0x40, 0x40,
  0x80, 0x4a, 0x40, 0x00, 0x80, 0x32, 0x40, 0x00, 0x80, 0x3f, 0x40, 0x00,
  0x90, 0x33, 0x40, 0x00, 0x90, 0x41, 0x40, 0x00, 0x90, 0x4b, 0x40, 0x40,
  0x80, 0x33, 0x40, 0x00, 0x80, 0x4b, 0x40, 0x00, 0x90, 0x4a, 0x40, 0x00,
  0x90, 0x32, 0x40, 0x40, 0x80, 0x41, 0x40, 0x00, 0x80, 0x4a, 0x40, 0x00,
  0x80, 0x32, 0x40, 0x00, 0x90, 0x48, 0x40, 0x00, 0x90, 0x41, 0x40, 0x00,
  0x90, 0x3c, 0x40, 0x00, 0x90, 0x30, 0x40, 0x20, 0x80, 0x41, 0x40, 0x00,
  0x90, 0x43, 0x40, 0x82, 0x60, 0x80, 0x43, 0x40, 0x00, 0x80, 0x30, 0x40,
  0x00, 0x80, 0x3c, 0x40, 0x00, 0x80, 0x48, 0x40, 0x00, 0xff, 0x2f, 0x00,
  0x4d, 0x54, 0x72, 0x6b, 0x00, 0x00, 0x00, 0x15, 0x00, 0xff, 0x03, 0x06,
  0x4b, 0x69, 0x63, 0x6b, 0x65, 0x72, 0x00, 0xff, 0x51, 0x03, 0x06, 0x8a,
  0x1b, 0x00, 0xff, 0x2f, 0x00
};
unsigned int midifile_len = 2141;
